<svg width="24" height="24" viewBox="0 0 24 24" fill="none" xmlns="http://www.w3.org/2000/svg">
<path fill-rule="evenodd" clip-rule="evenodd" d="M20 3H21V4V5V6H20V7V8V9H19V10V11V12V13H18V14V15H17V16V17H16V18V19H15V20V21H14H13V20V19V18V17H12V16V15H11V14V13H10H9V12H8H7V11H6H5H4H3V10V9H4H5V8H6H7V7H8H9V6H10H11V5H12H13H14V4H15H16H17H18V3H19H20ZM15 17V16V15H16V14V13H17V12V11V10H18V9V8H17V9H16V10H15V11H14V12H13V13V14V15H14V16V17H15ZM7 9H8H9V8H10H11V7H12H13H14V6H15H16V7H15V8H14V9H13V10H12V11H11H10H9V10H8H7V9Z" fill="black"/>
</svg>
